<?xml version="1.0" encoding="utf-8"?>
<!-- Generator: Adobe Illustrator 23.0.1, SVG Export Plug-In . SVG Version: 6.00 Build 0)  -->
<svg version="1.1" id="Capa_1" xmlns="http://www.w3.org/2000/svg" xmlns:xlink="http://www.w3.org/1999/xlink" x="0px" y="0px"
	 viewBox="0 0 196.06 196.88" style="enable-background:new 0 0 196.06 196.88;" xml:space="preserve">
<style type="text/css">
	.st0{fill:#AF2426;}
	.st1{fill:#FFFFFF;}
</style>
<g>
	<circle class="st0" cx="98.03" cy="98.44" r="57.97"/>
	<path d="M86.82,66.37"/>
	<g>
		<g>
			<path d="M62.36,68.76c-0.02-1.77-1.44-3.19-3.21-3.19s-3.19,1.42-3.21,3.19l0,0v23h6.45L62.36,68.76L62.36,68.76z"/>
			<path d="M72.24,68.76c-0.02-1.77-1.44-3.19-3.21-3.19c-1.77,0-3.19,1.42-3.21,3.19l0,0v23h6.45L72.24,68.76L72.24,68.76z"/>
			<path d="M82.09,68.76c-0.02-1.77-1.44-3.19-3.21-3.19c-1.77,0-3.19,1.42-3.21,3.19l0,0v23h6.45L82.09,68.76L82.09,68.76z"/>
			<path d="M101.53,91.82c0,0,0.26-20.57-16.07-26.6v26.6H101.53z"/>
			<path d="M104.85,91.82h35.3c0,0-3.15-26.62-17.57-26.71S104.85,91.82,104.85,91.82z"/>
		</g>
		<g>
			<path class="st1" d="M61.94,131.53v-0.72c-0.72,0.63-1.53,0.94-2.45,0.94c-1.38,0-2.47-0.63-3.26-1.9
				c-0.63-1.11-0.96-2.4-0.96-3.85v-25.4c0-1.49,0.44-2.8,1.29-3.91c0.96-1.25,2.16-1.88,3.61-1.88c1.46,0,2.67,0.61,3.63,1.81
				c0.85,1.16,1.29,2.47,1.29,3.96v4.24h-3.1v-4.24c0-1.77-0.59-2.67-1.79-2.67c-0.61,0-1.05,0.28-1.33,0.85
				c-0.31,0.63-0.44,1.22-0.44,1.79v25.42c0,0.66,0.13,1.25,0.39,1.73c0.33,0.63,0.79,0.94,1.38,0.94c1.2,0,1.79-0.9,1.79-2.67
				v-11.15h-2.25v-3.1h5.36v19.8C65.09,131.53,61.94,131.53,61.94,131.53z"/>
			<path class="st1" d="M76.19,126.03c0,1.53-0.44,2.86-1.29,3.98c-0.98,1.18-2.19,1.77-3.63,1.77c-1.44,0-2.62-0.59-3.52-1.75
				c-0.9-1.16-1.36-2.49-1.36-4V100.6c0-1.49,0.46-2.82,1.36-4c0.9-1.2,2.08-1.79,3.52-1.79c1.46,0,2.67,0.61,3.63,1.84
				c0.85,1.11,1.29,2.45,1.29,3.98V126.03z M73.09,100.58c0-1.77-0.59-2.67-1.79-2.67c-0.57,0-1.03,0.31-1.38,0.92
				c-0.26,0.5-0.39,1.09-0.39,1.75V126c0,0.66,0.13,1.25,0.39,1.73c0.33,0.63,0.79,0.94,1.38,0.94c1.2,0,1.79-0.9,1.79-2.67V100.58z
				"/>
			<path class="st1" d="M87.38,126.03c0,1.53-0.44,2.86-1.29,3.98c-0.98,1.18-2.19,1.77-3.63,1.77c-1.44,0-2.62-0.59-3.52-1.75
				c-0.9-1.16-1.36-2.49-1.36-4V95.05h3.1V126c0,0.66,0.13,1.25,0.39,1.73c0.33,0.63,0.79,0.94,1.38,0.94c1.2,0,1.79-0.9,1.79-2.67
				V95.05h3.1v30.97H87.38z"/>
			<path class="st1" d="M95.49,131.53v-13.99c0-1.77-0.59-2.67-1.79-2.67h-1.79v16.66h-3.13V95.05h4.92c1.46,0,2.67,0.61,3.61,1.84
				c0.87,1.18,1.31,2.49,1.31,3.93v7.37c0,2.34-0.85,4.04-2.54,5.11c1.68,1.07,2.54,2.8,2.54,5.14v13.09
				C98.62,131.53,95.49,131.53,95.49,131.53z M95.49,100.82c0-1.77-0.59-2.67-1.79-2.67h-1.79v13.62h1.79c1.2,0,1.79-0.9,1.79-2.69
				V100.82z"/>
			<path class="st1" d="M108.06,131.53v-19.32l-2.45,13.4l-2.49-13.4v19.32h-3.1V95.05h2.99l2.58,14.16l2.56-14.16h3.04v36.48
				H108.06z"/>
			<path class="st1" d="M112.59,131.53V95.05h8.46v3.1h-5.36v13.62h4.44v3.1h-4.44v13.62h5.36v3.06h-8.46V131.53z"/>
			<path class="st1" d="M122.03,131.53V95.05h8.46v3.1h-5.36v13.62h4.44v3.1h-4.44v13.62h5.36v3.06h-8.46V131.53z"/>
			<path class="st1" d="M137.49,98.16v33.38h-3.1V98.16h-3.34v-3.1h9.79v3.1H137.49z"/>
		</g>
	</g>
</g>
</svg>
