<?xml version="1.0" encoding="utf-8"?>
<!-- Generator: Adobe Illustrator 23.0.1, SVG Export Plug-In . SVG Version: 6.00 Build 0)  -->
<svg version="1.1" id="Capa_1" xmlns="http://www.w3.org/2000/svg" xmlns:xlink="http://www.w3.org/1999/xlink" x="0px" y="0px"
	 viewBox="0 0 196.06 196.88" style="enable-background:new 0 0 196.06 196.88;" xml:space="preserve">
<style type="text/css">
	.st0{fill:#AF2426;}
	.st1{fill:#FFFFFF;}
</style>
<g>
	<circle class="st0" cx="97.68" cy="97.11" r="89.9"/>
	<path d="M80.28,47.38"/>
	<g>
		<g>
			<path d="M42.36,51.07c-0.03-2.74-2.25-4.95-4.99-4.95s-4.97,2.21-4.99,4.95h-0.01v35.67h10L42.36,51.07L42.36,51.07z"/>
			<path d="M57.68,51.07c-0.03-2.74-2.25-4.95-4.99-4.95s-4.97,2.21-4.99,4.95h-0.01v35.67h10L57.68,51.07L57.68,51.07z"/>
			<path d="M72.95,51.07c-0.03-2.74-2.25-4.95-4.99-4.95s-4.97,2.21-4.99,4.95h-0.01v35.67h10L72.95,51.07L72.95,51.07z"/>
			<path d="M103.12,86.82c0,0,0.42-31.92-24.92-41.25v41.25H103.12z"/>
			<path d="M108.24,86.82h54.75c0,0-4.88-41.29-27.25-41.42S108.24,86.82,108.24,86.82z"/>
		</g>
		<g>
			<path class="st1" d="M41.69,148.45v-1.11c-1.11,0.98-2.38,1.47-3.81,1.47c-2.13,0-3.82-0.99-5.06-2.96c-1-1.73-1.5-3.71-1.5-5.96
				v-39.42c0-2.32,0.66-4.35,1.99-6.08c1.49-1.94,3.35-2.92,5.59-2.92c2.27,0,4.15,0.94,5.63,2.81c1.32,1.8,1.99,3.85,1.99,6.14V107
				h-4.82v-6.56c0-2.75-0.93-4.13-2.8-4.13c-0.95,0-1.63,0.45-2.07,1.34c-0.46,0.97-0.69,1.9-0.69,2.8v39.42
				c0,1.03,0.2,1.92,0.61,2.67c0.51,0.97,1.23,1.46,2.15,1.46c1.86,0,2.8-1.38,2.8-4.13v-17.3h-3.48v-4.82h8.31v30.71H41.69z"/>
			<path class="st1" d="M63.81,139.9c0,2.38-0.66,4.43-1.99,6.16c-1.51,1.84-3.39,2.75-5.63,2.75c-2.24,0-4.07-0.91-5.47-2.71
				c-1.4-1.81-2.11-3.88-2.11-6.2v-39.42c0-2.32,0.7-4.39,2.11-6.2c1.4-1.86,3.23-2.8,5.47-2.8c2.27,0,4.15,0.95,5.63,2.84
				c1.32,1.73,1.99,3.78,1.99,6.16V139.9z M58.99,100.44c0-2.75-0.93-4.13-2.8-4.13c-0.89,0-1.61,0.47-2.15,1.42
				c-0.41,0.78-0.61,1.69-0.61,2.71v39.42c0,1.03,0.2,1.92,0.61,2.67c0.51,0.97,1.23,1.46,2.15,1.46c1.86,0,2.8-1.38,2.8-4.13
				V100.44z"/>
			<path class="st1" d="M81.15,139.9c0,2.38-0.66,4.43-1.99,6.16c-1.51,1.84-3.39,2.75-5.63,2.75c-2.24,0-4.07-0.91-5.47-2.71
				c-1.4-1.81-2.11-3.88-2.11-6.2V91.85h4.82v48.01c0,1.03,0.2,1.92,0.61,2.67c0.51,0.97,1.23,1.46,2.15,1.46
				c1.86,0,2.8-1.38,2.8-4.13V91.85h4.82V139.9z"/>
			<path class="st1" d="M93.75,148.45v-21.72c0-2.75-0.93-4.13-2.8-4.13h-2.8v25.85h-4.82v-56.6h7.62c2.27,0,4.13,0.95,5.59,2.84
				c1.35,1.84,2.03,3.88,2.03,6.12v11.43c0,3.62-1.31,6.27-3.94,7.94c2.62,1.67,3.94,4.33,3.94,7.98v20.3H93.75z M93.75,100.8
				c0-2.75-0.93-4.13-2.8-4.13h-2.8v21.11h2.8c1.86,0,2.8-1.39,2.8-4.17V100.8z"/>
			<path class="st1" d="M113.24,148.45v-29.98l-3.81,20.79l-3.85-20.79v29.98h-4.82v-56.6h4.66l3.99,21.96l3.95-21.96h4.7v56.6
				H113.24z"/>
			<path class="st1" d="M120.25,148.45v-56.6h13.13v4.82h-8.31v21.11h6.89v4.82h-6.89v21.11h8.31v4.74H120.25z"/>
			<path class="st1" d="M134.92,148.45v-56.6h13.13v4.82h-8.31v21.11h6.89v4.82h-6.89v21.11h8.31v4.74H134.92z"/>
			<path class="st1" d="M158.86,96.67v51.78h-4.82V96.67h-5.19v-4.82h15.19v4.82H158.86z"/>
		</g>
	</g>
</g>
</svg>
